<svg width="256" height="256" viewBox="0 0 256 256" fill="none" xmlns="http://www.w3.org/2000/svg">
<path d="M128 24C62.8 24 12 74.8 12 140C12 205.2 62.8 256 128 256C193.2 256 244 205.2 244 140C244 74.8 193.2 24 128 24ZM48 140C48 91.6 83.6 52 128 52C140.835 52 153.039 55.4326 163.8 61.3936C164.12 61.5833 164.434 61.7852 164.742 61.998C165.258 62.3622 165.751 62.7485 166.223 63.1543C166.253 63.1782 166.282 63.2031 166.311 63.228C176.046 71.2188 183.6 82.0281 187.6 94H160C146.8 94 136 104.8 136 118V134H112C102.059 134 94 142.059 94 152V172C94 177.523 98.4772 182 104 182H144C153.941 182 162 173.941 162 164V152C162 146.477 157.523 142 152 142H148V118C148 111.4 153.4 106 160 106H199.8C200.6 114 200.8 122.2 200.8 130.4C200.8 133.6 200.8 136.8 200.6 140H48Z" fill="#007C7C"/>
<path d="M163.8 61.3936C153.039 55.4326 140.835 52 128 52C83.6 52 48 91.6 48 140H200.6C200.271 113.155 188.483 89.6582 166.311 71.9719C166.282 71.9969 166.253 72.0218 166.223 72.0457C165.751 71.6378 165.258 71.2515 164.742 70.882C164.434 70.6748 164.12 70.4729 163.8 70.2833L163.8 61.3936Z" fill="#009A9A"/>
</svg>
    