<svg width="512" height="512" viewBox="0 0 24 24" fill="none" xmlns="http://www.w3.org/2000/svg">
<path d="M12 22C17.5228 22 22 17.5228 22 12C22 6.47715 17.5228 2 12 2C6.47715 2 2 6.47715 2 12C2 17.5228 6.47715 22 12 22Z" stroke="#007C7C" stroke-width="2" stroke-linecap="round" stroke-linejoin="round"/>
<path d="M16 8H10C8.89543 8 8 8.89543 8 10C8 11.1046 8.89543 12 10 12H14C15.1046 12 16 12.8954 16 14C16 15.1046 15.1046 16 14 16H10" stroke="#007C7C" stroke-width="2" stroke-linecap="round" stroke-linejoin="round"/>
<path d="M12 6V18" stroke="#007C7C" stroke-width="2" stroke-linecap="round" stroke-linejoin="round"/>
</svg>
